<?xml version="1.0" standalone="no"?>
<!DOCTYPE svg PUBLIC "-//W3C//DTD SVG 20010904//EN"
 "http://www.w3.org/TR/2001/REC-SVG-20010904/DTD/svg10.dtd">
<svg version="1.0" xmlns="http://www.w3.org/2000/svg"
 width="1024.000000pt" height="1024.000000pt" viewBox="0 0 1024.000000 1024.000000"
 preserveAspectRatio="xMidYMid meet">

<g transform="translate(0.000000,1024.000000) scale(0.100000,-0.100000)"
fill="#000000" stroke="none">
<path d="M4682 9764 c-642 -63 -1273 -251 -1847 -548 -147 -76 -366 -208 -483
-289 -26 -18 -83 -59 -128 -90 -223 -156 -581 -486 -793 -732 -446 -516 -809
-1201 -971 -1829 -255 -990 -200 -1983 161 -2906 68 -175 252 -539 356 -705
177 -283 403 -572 642 -819 168 -174 473 -421 731 -593 597 -398 1386 -693
2115 -792 551 -74 1150 -40 1723 99 210 51 293 77 532 162 961 346 1717 919
2277 1728 541 783 814 1659 815 2620 0 253 -10 388 -52 671 -77 529 -222 985
-459 1444 -321 624 -742 1132 -1296 1566 -598 469 -1323 798 -2085 948 -364
72 -894 100 -1238 65z m463 -1968 c171 -38 354 -118 495 -217 96 -67 260 -233
328 -331 86 -125 153 -271 191 -415 7 -24 15 -43 19 -43 4 0 42 7 85 15 213
41 476 -1 681 -108 172 -89 305 -214 426 -397 259 -395 243 -917 -41 -1300
-82 -111 -196 -211 -297 -260 l-51 -25 -1 -225 c-1 -147 -6 -239 -14 -265 -10
-35 -10 -43 5 -65 14 -21 289 -453 335 -527 22 -35 18 -70 -8 -76 -13 -3
-1023 -6 -2245 -6 -1996 -1 -2224 1 -2237 15 -9 8 -16 19 -16 23 0 11 303 474
342 523 l29 37 -18 48 c-14 39 -18 90 -21 281 -2 127 -7 232 -12 232 -18 0
-168 106 -223 158 -212 201 -340 506 -339 807 0 253 79 472 247 682 161 204
410 346 661 376 l90 11 26 103 c45 174 120 312 259 479 210 252 524 430 845
478 120 18 357 14 459 -8z m-2125 -3325 c0 -10 -211 -325 -348 -521 -53 -74
-135 -192 -184 -261 -67 -95 -96 -128 -115 -132 -41 -8 -403 5 -409 15 -7 12
26 57 125 172 47 54 109 126 136 160 28 34 137 164 243 288 199 232 232 261
314 277 58 12 238 13 238 2z m4390 -23 c63 -31 53 -20 569 -638 57 -69 122
-145 143 -169 45 -52 49 -78 12 -87 -26 -7 -383 4 -395 12 -4 2 -78 106 -165
230 -88 125 -215 306 -283 403 -127 179 -181 262 -181 276 0 4 55 5 123 4 109
-4 128 -7 177 -31z m-2951 -1187 c30 -31 62 -53 87 -60 51 -14 984 -15 1035
-1 40 11 119 74 119 96 0 12 171 14 1210 14 l1210 0 0 -26 c0 -38 -50 -132
-95 -178 -91 -94 -181 -137 -325 -156 -61 -8 -835 -10 -2700 -8 l-2615 3 -70
23 c-167 56 -268 151 -309 290 l-15 52 1210 0 1210 0 48 -49z"/>
<path d="M3514 6102 c-60 -21 -97 -49 -136 -101 -64 -88 -61 -51 -64 -881 -1
-415 1 -783 6 -818 17 -123 91 -222 196 -261 54 -21 65 -21 1534 -21 1475 0
1479 0 1535 21 86 32 135 75 175 153 l35 69 0 811 0 811 -24 53 c-32 71 -115
147 -183 167 -45 13 -236 15 -1537 15 -1390 -1 -1489 -2 -1537 -18z m2320
-282 c49 -25 71 -65 71 -125 0 -60 -19 -89 -72 -111 -48 -21 -2138 -21 -2186
0 -55 23 -72 51 -72 116 0 51 4 63 30 90 16 17 43 35 60 39 17 5 490 9 1085 8
916 -2 1059 -4 1084 -17z m514 -14 c101 -53 110 -188 17 -246 -39 -24 -104
-26 -146 -5 -65 34 -90 135 -50 201 34 56 121 80 179 50z m-505 -609 c38 -25
67 -75 67 -117 0 -41 -29 -93 -62 -112 -34 -19 -2182 -19 -2216 0 -58 33 -80
128 -43 188 41 68 -30 64 1156 61 1013 -2 1072 -3 1098 -20z m499 14 c35 -13
77 -60 87 -97 39 -143 -148 -233 -248 -119 -26 30 -31 44 -31 87 0 47 4 54 44
94 37 38 49 44 84 44 22 0 51 -4 64 -9z m44 -644 c77 -83 57 -195 -41 -233
-62 -23 -109 -12 -157 36 -28 28 -38 47 -39 71 -3 85 10 116 64 150 25 16 44
19 86 16 47 -3 59 -9 87 -40z m-551 19 c66 -28 93 -114 61 -191 -29 -69 42
-65 -1153 -65 -842 0 -1083 3 -1103 13 -13 7 -35 28 -48 47 -20 29 -23 44 -20
87 5 58 25 88 73 109 47 21 2141 20 2190 0z"/>
</g>
</svg>
